<svg id="Layer_1" data-name="Layer 1" xmlns="http://www.w3.org/2000/svg" viewBox="0 0 450.55 578.98"><defs><style>.cls-1{fill:#2e2d2d;}.cls-2{fill:none;stroke:#fff;stroke-miterlimit:10;}.cls-3{fill:#f5cd46;}.cls-4{fill:#d6b740;}.cls-5{fill:#fff;}</style></defs><path class="cls-1" d="M607,250.51H473A158.25,158.25,0,0,0,314.72,408.75V619.89c0,115.76,93.85,209.6,209.61,209.6h31.34c115.76,0,209.61-93.84,209.61-209.6V408.75A158.25,158.25,0,0,0,607,250.51ZM412.59,284.83a129.42,129.42,0,0,1,54-11.67h145a129.18,129.18,0,0,1,54.56,12,123.63,123.63,0,0,1,13.31,7.1l-112,112-.87.88-7.13,7.12-.81.82c-.25-.29-.47-.55-.72-.82a28.1,28.1,0,0,0-4.95-4.41,26.88,26.88,0,0,0-15.37-4.77,26.34,26.34,0,0,0-6,.67c-.75.17-1.51.39-2.24.63-.55.17-1.11.37-1.64.58a13.26,13.26,0,0,0-1.47.63,7,7,0,0,0-.87.43,11.19,11.19,0,0,0-1.27.69,9,9,0,0,0-1.06.63.41.41,0,0,0-.18.13,6.6,6.6,0,0,0-1,.69h0a9.94,9.94,0,0,0-1.17.88c-.24.18-.49.39-.71.59a6,6,0,0,0-.71.63,7.34,7.34,0,0,0-.64.61,16.18,16.18,0,0,0-1.16,1.19L398,292.67A121.17,121.17,0,0,1,412.59,284.83ZM609.05,472.34c1.33,2.1,2.57,4.28,3.72,6.48l-3.72,3.6-20.4,19.69-12.45,12-20.81,20.07-15.9,15.35-15.43-15.35-20.18-20.07L490.7,501l-20.41-20.32-4.14-4.12c1.29-2.33,2.68-4.59,4.14-6.8a107.66,107.66,0,0,1,20.41-22.91c.78-.67,1.55-1.31,2.35-2a107.62,107.62,0,0,1,16-10.55,18.21,18.21,0,0,1,1.62-.88c1.06-.55,2.12-1.08,3.2-1.61a100.46,100.46,0,0,1,9.49-4c2.43-.9,4.92-1.71,7.43-2.41s5.34-1.42,8.08-2h0c2.53.51,5,1.11,7.47,1.8a106,106,0,0,1,10.06,3.37c2.53,1,5,2,7.44,3.2.23.1.45.23.66.31,1.24.61,2.47,1.24,3.67,1.89a107.7,107.7,0,0,1,17.16,11.41c1.14.92,2.24,1.86,3.33,2.84A108,108,0,0,1,609.05,472.34ZM336.27,403.43a130.4,130.4,0,0,1,44.14-97.73L487,412.24H336.27Zm0,28.4h29.92a27,27,0,0,0,27,25.36c.7,0,1.37,0,2-.08a26.47,26.47,0,0,0,5.88-1.1,27.06,27.06,0,0,0,19.08-24.18h52.87c-.94.82-1.86,1.65-2.78,2.49a117.78,117.78,0,0,0-20.67,25.77A126.13,126.13,0,0,0,439.26,482,133.26,133.26,0,0,0,432,514.11H336.27Zm0,102.35h95.15a139.5,139.5,0,0,0,2,18.37,128,128,0,0,0,22.24,52.73H336.27Zm1.51,111a190.49,190.49,0,0,1-1.47-20.41h134v71.51H352A184.61,184.61,0,0,1,337.78,645.19Zm133,154.12A186.4,186.4,0,0,1,365.1,717.92H470.76Zm117.89,4.82A187,187,0,0,1,556.16,807H521.88a184,184,0,0,1-31.18-2.63V643.72l2.35,1.47,6.61,4.14h0L539.18,674l38.73-24.71,6.45-4.12L588,642.9l.7-.44Zm9.69-203.24c-1,1.39-2.06,2.75-3.14,4.08l-.25.31c-2,2.53-4.1,4.94-6.3,7.26q-3.79,4.08-7.92,7.76c-1.74,1.55-3.49,3.06-5.31,4.48s-3.67,2.86-5.59,4.19c0,0,0,0,0,0a112.57,112.57,0,0,1-13.93,8.45,114.07,114.07,0,0,1-12.59,5.48c-1.56.58-3.13,1.13-4.72,1.62-1.59-.51-3.18-1-4.75-1.62a109.56,109.56,0,0,1-12.51-5.46h0a115.58,115.58,0,0,1-16.63-10.39c-1-.73-2-1.49-2.94-2.27-1.82-1.44-3.59-2.93-5.33-4.53-2-1.71-3.85-3.53-5.69-5.4a115.78,115.78,0,0,1-8.51-9.57,1.35,1.35,0,0,1-.2-.27c-2.1-2.57-4.08-5.28-6-8l-.06-.1a.44.44,0,0,0-.08-.1q-3-4.38-5.6-9a136.51,136.51,0,0,1-13.91-35.18,143,143,0,0,1-3.25-18.37c-.32-3-.57-6-.69-9V525c-.12-2.24-.18-4.49-.18-6.77,0-1.37,0-2.74.06-4.08a140.18,140.18,0,0,1,1.59-17.78l2.75,2.72h0v0l13.61,13.28,1.8,1.76,18.61,18.2,1.92,1.87,18.79,18.37,12.41,12.12,14.83,14.51,15.49-15.06L566,552.55l18.89-18.37,3.72-3.61,16.93-16.46,3.47-3.39,12-11.63,1.53-1.47.78-.76a147.63,147.63,0,0,1,1.51,17.25c0,1.34.06,2.71.06,4.08,0,.36,0,.71,0,1.08v.06a143.06,143.06,0,0,1-4.11,33.22,137.27,137.27,0,0,1-11.71,31.16,133.18,133.18,0,0,1-10.69,17.14S598.34,600.87,598.34,600.89ZM700.28,738.32a185.77,185.77,0,0,1-91.23,61V717.92H714.71A182.56,182.56,0,0,1,700.28,738.32Zm40-93.13A184.61,184.61,0,0,1,726,696.29h-117V624.78H741.73A185.45,185.45,0,0,1,740.26,645.19Zm1.51-39.91h-121A127.87,127.87,0,0,0,643,552.55a139.5,139.5,0,0,0,2-18.37h96.78Zm0-91.17H644.41a132.78,132.78,0,0,0-6.89-31.06,126.74,126.74,0,0,0-8.8-19.61,119.62,119.62,0,0,0-19.67-26.26c-1.85-1.86-3.75-3.66-5.71-5.35H657a28.38,28.38,0,0,0,.51,3.84,27.14,27.14,0,0,0,11.37,16.91A27.16,27.16,0,0,0,683,457.17c.31,0,.63,0,.94,0a27.06,27.06,0,0,0,27-25.36h30.77Zm0-101.87H590l18.73-18.73.37-.37,88-88a125.94,125.94,0,0,1,14.16,14.41,129.61,129.61,0,0,1,30.59,83.85Z" transform="translate(-314.72 -250.51)"/><path class="cls-1" d="M455.68,605.28H336.27v-71.1h95.15a139.5,139.5,0,0,0,2,18.37A128,128,0,0,0,455.68,605.28Z" transform="translate(-314.72 -250.51)"/><path class="cls-1" d="M470.29,696.29H352a184.61,184.61,0,0,1-14.24-51.1,190.49,190.49,0,0,1-1.47-20.41h134Z" transform="translate(-314.72 -250.51)"/><path class="cls-1" d="M365.1,717.92H470.76v81.39A186.4,186.4,0,0,1,365.1,717.92Z" transform="translate(-314.72 -250.51)"/><path class="cls-1" d="M432,514.11H336.27V431.83h29.92a27,27,0,0,0,27,25.36c.7,0,1.37,0,2-.08a26.47,26.47,0,0,0,5.88-1.1,27.06,27.06,0,0,0,19.08-24.18h52.87c-.94.82-1.86,1.65-2.78,2.49a117.78,117.78,0,0,0-20.67,25.77A126.13,126.13,0,0,0,439.26,482,133.26,133.26,0,0,0,432,514.11Z" transform="translate(-314.72 -250.51)"/><path class="cls-1" d="M336.27,412.24v-8.81a130.4,130.4,0,0,1,44.14-97.73L487,412.24Z" transform="translate(-314.72 -250.51)"/><path class="cls-1" d="M517.35,412,398,292.67a121.17,121.17,0,0,1,14.61-7.84,129.42,129.42,0,0,1,54-11.67h145a129.18,129.18,0,0,1,54.56,12,123.63,123.63,0,0,1,13.31,7.1l-112,112-.87.88-7.13,7.12-.81.82c-.25-.29-.47-.55-.72-.82a28.1,28.1,0,0,0-4.95-4.41,26.88,26.88,0,0,0-15.37-4.77,26.34,26.34,0,0,0-6,.67c-.75.17-1.51.39-2.24.63-.55.17-1.11.37-1.64.58a13.26,13.26,0,0,0-1.47.63,7,7,0,0,0-.87.43,11.19,11.19,0,0,0-1.27.69,9,9,0,0,0-1.06.63.41.41,0,0,0-.18.13,6.6,6.6,0,0,0-1,.69h0a9.94,9.94,0,0,0-1.17.88c-.24.18-.49.39-.71.59a6,6,0,0,0-.71.63,7.34,7.34,0,0,0-.64.61A16.18,16.18,0,0,0,517.35,412Z" transform="translate(-314.72 -250.51)"/><path class="cls-1" d="M588,642.9l.7-.44V804.13A187,187,0,0,1,556.16,807H521.88a184,184,0,0,1-31.18-2.63V643.72l2.35,1.47,6.61,4.14h0L539.18,674l38.73-24.71,6.45-4.12Z" transform="translate(-314.72 -250.51)"/><path class="cls-1" d="M585.32,445.44c1.14.92,2.24,1.86,3.33,2.84a108,108,0,0,1,20.4,24.06c1.33,2.1,2.57,4.28,3.72,6.48l-3.72,3.6-20.4,19.69-12.45,12-20.81,20.07-15.9,15.35-15.43-15.35-20.18-20.07L490.7,501l-20.41-20.32-4.14-4.12c1.29-2.33,2.68-4.59,4.14-6.8a107.66,107.66,0,0,1,20.41-22.91c.78-.67,1.55-1.31,2.35-2a107.62,107.62,0,0,1,16-10.55,18.21,18.21,0,0,1,1.62-.88c1.06-.55,2.12-1.08,3.2-1.61a100.46,100.46,0,0,1,9.49-4c2.43-.9,4.92-1.71,7.43-2.41s5.34-1.42,8.08-2h0c2.53.51,5,1.11,7.47,1.8a106,106,0,0,1,10.06,3.37c2.53,1,5,2,7.44,3.2.23.1.45.23.66.31,1.24.61,2.47,1.24,3.67,1.89A107.7,107.7,0,0,1,585.32,445.44Z" transform="translate(-314.72 -250.51)"/><path class="cls-1" d="M609.05,583.71a133.18,133.18,0,0,1-10.69,17.14s0,0,0,0c-1,1.39-2.06,2.75-3.14,4.08l-.25.31c-2,2.53-4.1,4.94-6.3,7.26q-3.79,4.08-7.92,7.76c-1.74,1.55-3.49,3.06-5.31,4.48s-3.67,2.86-5.59,4.19c0,0,0,0,0,0a112.57,112.57,0,0,1-13.93,8.45,114.07,114.07,0,0,1-12.59,5.48c-1.56.58-3.13,1.13-4.72,1.62-1.59-.51-3.18-1-4.75-1.62a109.56,109.56,0,0,1-12.51-5.46h0a115.58,115.58,0,0,1-16.63-10.39c-1-.73-2-1.49-2.94-2.27-1.82-1.44-3.59-2.93-5.33-4.53-2-1.71-3.85-3.53-5.69-5.4a115.78,115.78,0,0,1-8.51-9.57,1.35,1.35,0,0,1-.2-.27c-2.1-2.57-4.08-5.28-6-8l-.06-.1a.44.44,0,0,0-.08-.1q-3-4.38-5.6-9a136.51,136.51,0,0,1-13.91-35.18,143,143,0,0,1-3.25-18.37c-.32-3-.57-6-.69-9V525c-.12-2.24-.18-4.49-.18-6.77,0-1.37,0-2.74.06-4.08a140.18,140.18,0,0,1,1.59-17.78l2.75,2.72h0v0l13.61,13.28,1.8,1.76,18.61,18.2,1.92,1.87,18.79,18.37,12.41,12.12,14.83,14.51,15.49-15.06L566,552.55l18.89-18.37,3.72-3.61,16.93-16.46,3.47-3.39,12-11.63,1.53-1.47.78-.76a147.63,147.63,0,0,1,1.51,17.25c0,1.34.06,2.71.06,4.08,0,.36,0,.71,0,1.08v.06a143.06,143.06,0,0,1-4.11,33.22A137.27,137.27,0,0,1,609.05,583.71Z" transform="translate(-314.72 -250.51)"/><path class="cls-1" d="M609.05,717.92H714.71a182.56,182.56,0,0,1-14.43,20.4,185.77,185.77,0,0,1-91.23,61Z" transform="translate(-314.72 -250.51)"/><path class="cls-1" d="M609.05,624.78H741.73A184.38,184.38,0,0,1,726,696.29h-117Z" transform="translate(-314.72 -250.51)"/><path class="cls-1" d="M741.77,403.43v8.81H590l18.73-18.73.37-.37,88-88a125.94,125.94,0,0,1,14.16,14.41A129.61,129.61,0,0,1,741.77,403.43Z" transform="translate(-314.72 -250.51)"/><path class="cls-1" d="M711,431.83h30.77v82.28H644.41a132.78,132.78,0,0,0-6.89-31.06,126.74,126.74,0,0,0-8.8-19.61,119.62,119.62,0,0,0-19.67-26.26c-1.85-1.86-3.75-3.66-5.71-5.35H657a28.38,28.38,0,0,0,.51,3.84,27.14,27.14,0,0,0,11.37,16.91A27.16,27.16,0,0,0,683,457.17c.31,0,.63,0,.94,0A27.06,27.06,0,0,0,711,431.83Z" transform="translate(-314.72 -250.51)"/><path class="cls-1" d="M645,534.18h96.78v71.1h-121A127.87,127.87,0,0,0,643,552.55,139.5,139.5,0,0,0,645,534.18Z" transform="translate(-314.72 -250.51)"/><line class="cls-2" x1="354.48" y1="201.73" x2="354.14" y2="202.08"/><path class="cls-3" d="M700.28,738.32a185.77,185.77,0,0,1-91.23,61v-61Z" transform="translate(-314.72 -250.51)"/><path class="cls-4" d="M714.71,717.92a182.56,182.56,0,0,1-14.43,20.4H609.05v-20.4Z" transform="translate(-314.72 -250.51)"/><path class="cls-4" d="M741.73,624.78a185.45,185.45,0,0,1-1.47,20.41H609.05V624.78Z" transform="translate(-314.72 -250.51)"/><path class="cls-3" d="M740.26,645.19A184.61,184.61,0,0,1,726,696.29h-117v-51.1Z" transform="translate(-314.72 -250.51)"/><path class="cls-3" d="M741.77,552.55v52.73h-121A127.87,127.87,0,0,0,643,552.55Z" transform="translate(-314.72 -250.51)"/><path class="cls-4" d="M741.77,534.18v18.37H643a139.5,139.5,0,0,0,2-18.37Z" transform="translate(-314.72 -250.51)"/><path class="cls-5" d="M741.77,431.83v82.28H644.41a132.78,132.78,0,0,0-6.89-31.06,126.74,126.74,0,0,0-8.8-19.61,119.62,119.62,0,0,0-19.67-26.26c-1.85-1.86-3.75-3.66-5.71-5.35H657a28.38,28.38,0,0,0,.51,3.84,27.14,27.14,0,0,0,11.37,16.91A27.16,27.16,0,0,0,683,457.17c.31,0,.63,0,.94,0a27.06,27.06,0,0,0,27-25.36Z" transform="translate(-314.72 -250.51)"/><path class="cls-4" d="M741.77,403.43v8.81H618.52l11.2-11.2,81.46-81.46A129.61,129.61,0,0,1,741.77,403.43Z" transform="translate(-314.72 -250.51)"/><path class="cls-3" d="M711.18,319.58,629.72,401l-11.2,11.2H590l18.73-18.73.37-.37,88-88A125.94,125.94,0,0,1,711.18,319.58Z" transform="translate(-314.72 -250.51)"/><path class="cls-4" d="M561.9,389.29,554.22,397l-.79.79-6.86,6.86a27.31,27.31,0,0,0-9.08-1.55,26.34,26.34,0,0,0-6,.67L516.78,389l3.41-1.22h0l2-.72,18-6.41,17.58,7,2.43,1Z" transform="translate(-314.72 -250.51)"/><path class="cls-3" d="M666.06,285.12l-77.41,77.41L564.08,387.1l-2.18,2.19-1.62-.64-2.43-1-17.58-7-18,6.41-2,.72h0L516.78,389,412.59,284.83a129.42,129.42,0,0,1,54-11.67h145A129.18,129.18,0,0,1,666.06,285.12Z" transform="translate(-314.72 -250.51)"/><path class="cls-4" d="M531.49,403.73c-.75.17-1.51.39-2.24.63-.55.17-1.11.37-1.64.58a13.26,13.26,0,0,0-1.47.63,7,7,0,0,0-.87.43,11.19,11.19,0,0,0-1.27.69,9,9,0,0,0-1.06.63.41.41,0,0,0-.18.13,6.6,6.6,0,0,0-1,.69h0a9.94,9.94,0,0,0-1.17.88c-.24.18-.49.39-.71.59a6,6,0,0,0-.71.63,7.34,7.34,0,0,0-.64.61,16.18,16.18,0,0,0-1.16,1.19L398,292.67a121.17,121.17,0,0,1,14.61-7.84L516.78,389Z" transform="translate(-314.72 -250.51)"/><path class="cls-3" d="M487,412.24H460.42l-93.15-93.15a128.74,128.74,0,0,1,13.14-13.39Z" transform="translate(-314.72 -250.51)"/><path class="cls-4" d="M460.42,412.24H336.27v-8.81a129.57,129.57,0,0,1,31-84.34Z" transform="translate(-314.72 -250.51)"/><path class="cls-3" d="M612.77,478.82l-3.72,3.6-20.4,19.69-12.45,12-20.81,20.07-15.9,15.35-15.43-15.35-20.18-20.07L490.7,501l-20.41-20.32-4.14-4.12c1.29-2.33,2.68-4.59,4.14-6.8a107.66,107.66,0,0,1,20.41-22.91c.78-.67,1.55-1.31,2.35-2a107.62,107.62,0,0,1,16-10.55,18.21,18.21,0,0,1,1.62-.88c1.06-.55,2.12-1.08,3.2-1.61a100.46,100.46,0,0,1,9.49-4c2.43-.9,4.92-1.71,7.43-2.41s5.34-1.42,8.08-2h0c2.53.51,5,1.11,7.47,1.8a106,106,0,0,1,10.06,3.37c2.53,1,5,2,7.44,3.2.23.1.45.23.66.31,1.24.61,2.47,1.24,3.67,1.89a107.7,107.7,0,0,1,17.16,11.41c1.14.92,2.24,1.86,3.33,2.84a108,108,0,0,1,20.4,24.06C610.38,474.44,611.62,476.62,612.77,478.82Z" transform="translate(-314.72 -250.51)"/><path class="cls-4" d="M679.37,292.22l-112,112-.87.88-7.13,7.12-.81.82c-.25-.29-.47-.55-.72-.82a28.1,28.1,0,0,0-4.95-4.41,27.25,27.25,0,0,0-6.29-3.22l6.86-6.86.79-.79,7.68-7.67,2.18-2.19,24.57-24.57,77.41-77.41A123.63,123.63,0,0,1,679.37,292.22Z" transform="translate(-314.72 -250.51)"/><path class="cls-5" d="M473.07,431.83c-.94.82-1.86,1.65-2.78,2.49a117.78,117.78,0,0,0-20.67,25.77A126.13,126.13,0,0,0,439.26,482,133.26,133.26,0,0,0,432,514.11H336.27V431.83h29.92a27,27,0,0,0,27,25.36c.7,0,1.37,0,2-.08a26.47,26.47,0,0,0,5.88-1.1,27.06,27.06,0,0,0,19.08-24.18Z" transform="translate(-314.72 -250.51)"/><path class="cls-4" d="M433.44,552.55H336.27V534.18h95.15A139.5,139.5,0,0,0,433.44,552.55Z" transform="translate(-314.72 -250.51)"/><path class="cls-3" d="M455.68,605.28H336.27V552.55h97.17A128,128,0,0,0,455.68,605.28Z" transform="translate(-314.72 -250.51)"/><path class="cls-4" d="M470.29,624.78v20.41H337.78a190.49,190.49,0,0,1-1.47-20.41Z" transform="translate(-314.72 -250.51)"/><path class="cls-3" d="M470.29,645.19v51.1H352a184.61,184.61,0,0,1-14.24-51.1Z" transform="translate(-314.72 -250.51)"/><path class="cls-5" d="M588.65,642.46V804.13A187,187,0,0,1,556.16,807H521.88a184,184,0,0,1-31.18-2.63V643.72l2.35,1.47,6.61,4.14h0L539.18,674l38.73-24.71,6.45-4.12L588,642.9Z" transform="translate(-314.72 -250.51)"/><path class="cls-4" d="M624.89,518.19c0,.36,0,.71,0,1.08v.06a143.06,143.06,0,0,1-4.11,33.22,137.27,137.27,0,0,1-11.71,31.16,133.18,133.18,0,0,1-10.69,17.14s0,0,0,0c-1,1.39-2.06,2.75-3.14,4.08l-.25.31c-2,2.53-4.1,4.94-6.3,7.26q-3.79,4.08-7.92,7.76c-1.74,1.55-3.49,3.06-5.31,4.48s-3.67,2.86-5.59,4.19c0,0,0,0,0,0a112.57,112.57,0,0,1-13.93,8.45,114.07,114.07,0,0,1-12.59,5.48c-1.56.58-3.13,1.13-4.72,1.62-1.59-.51-3.18-1-4.75-1.62a109.56,109.56,0,0,1-12.51-5.46h0a115.58,115.58,0,0,1-16.63-10.39c-1-.73-2-1.49-2.94-2.27-1.82-1.44-3.59-2.93-5.33-4.53-2-1.71-3.85-3.53-5.69-5.4a115.78,115.78,0,0,1-8.51-9.57,1.35,1.35,0,0,1-.2-.27c-2.1-2.57-4.08-5.28-6-8l-.06-.1a.44.44,0,0,0-.08-.1q-3-4.38-5.6-9a136.51,136.51,0,0,1-13.91-35.18,143,143,0,0,1-3.25-18.37c-.32-3-.57-6-.69-9V525c-.12-2.24-.18-4.49-.18-6.77,0-1.37,0-2.74.06-4.08a140.18,140.18,0,0,1,1.59-17.78l2.75,2.72h0v0c-.22,3.08-.34,6.2-.34,9.34,0,1.92,0,3.82.14,5.7a122.52,122.52,0,0,0,2.57,20.07,124,124,0,0,0,5.49,18.37,114.87,114.87,0,0,0,5.75,12.61,120.06,120.06,0,0,0,20.41,28.1c.55.57,1.1,1.14,1.69,1.71a118.11,118.11,0,0,0,11.92,10.31c1.41,1.06,2.86,2.1,4.31,3.1a116.49,116.49,0,0,0,27.81,14.12h0A117,117,0,0,0,568.12,608c1.35-.86,2.65-1.75,4-2.69a119.11,119.11,0,0,0,12.83-10.53c1.29-1.21,2.53-2.45,3.74-3.7a120.61,120.61,0,0,0,20.4-28.24,112.64,112.64,0,0,0,4.78-10.26,124.38,124.38,0,0,0,5.85-18.37,122.4,122.4,0,0,0,2.92-20.07c.16-2.56.25-5.15.25-7.74v-.08c0-2.92-.11-5.82-.31-8.67l.78-.76a147.63,147.63,0,0,1,1.51,17.25C624.87,515.45,624.89,516.82,624.89,518.19Z" transform="translate(-314.72 -250.51)"/><path class="cls-3" d="M622.85,506.29v.08c0,2.59-.09,5.18-.25,7.74a122.4,122.4,0,0,1-2.92,20.07,124.38,124.38,0,0,1-5.85,18.37,112.64,112.64,0,0,1-4.78,10.26,120.61,120.61,0,0,1-20.4,28.24c-1.21,1.25-2.45,2.49-3.74,3.7a119.11,119.11,0,0,1-12.83,10.53c-1.31.94-2.61,1.83-4,2.69a117,117,0,0,1-31.67,14.53h0a116.49,116.49,0,0,1-27.81-14.12c-1.45-1-2.9-2-4.31-3.1A118.11,118.11,0,0,1,492.39,595c-.59-.57-1.14-1.14-1.69-1.71a120.06,120.06,0,0,1-20.41-28.1,114.87,114.87,0,0,1-5.75-12.61,124,124,0,0,1-5.49-18.37,122.52,122.52,0,0,1-2.57-20.07c-.1-1.88-.14-3.78-.14-5.7,0-3.14.12-6.26.34-9.34l13.61,13.28,1.8,1.76,18.61,18.2,1.92,1.87,18.79,18.37,12.41,12.12,14.83,14.51,15.49-15.06L566,552.55l18.89-18.37,3.72-3.61,16.93-16.46,3.47-3.39,12-11.63,1.53-1.47C622.74,500.47,622.85,503.37,622.85,506.29Z" transform="translate(-314.72 -250.51)"/><path class="cls-3" d="M470.76,738.32v61a185.77,185.77,0,0,1-91.23-61Z" transform="translate(-314.72 -250.51)"/><path class="cls-4" d="M470.76,717.92v20.4H379.53a185.2,185.2,0,0,1-14.43-20.4Z" transform="translate(-314.72 -250.51)"/></svg>