<svg id="Layer_1" data-name="Layer 1" xmlns="http://www.w3.org/2000/svg" viewBox="0 0 696.96 510.73"><defs><style>.cls-1{fill:#2e2d2d;}.cls-2{fill:none;stroke:#fff;stroke-miterlimit:10;}.cls-3{fill:#f5cd46;}.cls-4{fill:#d6b740;}.cls-5{fill:#fff;}.cls-6{fill:#d6b741;}</style></defs><path class="cls-1" d="M576.48,284.64H504a85.54,85.54,0,0,0-85.54,85.54V484.31a113.31,113.31,0,0,0,113.3,113.31h17A113.31,113.31,0,0,0,662,484.31V370.18A85.54,85.54,0,0,0,576.48,284.64ZM471.37,303.19a70,70,0,0,1,29.16-6.31h78.36a69.91,69.91,0,0,1,29.5,6.47,66.74,66.74,0,0,1,7.19,3.83L555,367.74l-.47.48-3.85,3.85-.44.44a5.56,5.56,0,0,0-.39-.44,14.61,14.61,0,0,0-6.07-4.13,14.8,14.8,0,0,0-4.91-.84,13.9,13.9,0,0,0-3.25.37,11,11,0,0,0-1.21.34c-.3.09-.59.2-.88.31s-.53.21-.8.34a12,12,0,0,0-1.15.61,3.81,3.81,0,0,0-.58.34l-.1.06a5.93,5.93,0,0,0-.54.38h0a5.73,5.73,0,0,0-.63.47l-.38.32a3.17,3.17,0,0,0-.39.34,2.73,2.73,0,0,0-.34.34,7.6,7.6,0,0,0-.63.64l-64.53-64.53A65.8,65.8,0,0,1,471.37,303.19Zm106.2,101.36c.72,1.14,1.39,2.32,2,3.51l-2,1.94-11,10.64-6.73,6.49L548.56,438l-8.59,8.3-8.34-8.3-10.91-10.85L513.59,420l-11-11-2.24-2.23c.7-1.25,1.45-2.48,2.24-3.67a58.67,58.67,0,0,1,11-12.39l1.27-1.06a57.62,57.62,0,0,1,8.64-5.7,8.17,8.17,0,0,1,.87-.47c.57-.3,1.15-.59,1.73-.87a55,55,0,0,1,5.13-2.16c1.31-.48,2.66-.92,4-1.3s2.89-.77,4.37-1.07h0c1.36.28,2.7.6,4,1q2.79.78,5.44,1.82c1.37.52,2.71,1.11,4,1.74.12,0,.24.12.35.16.67.33,1.34.67,2,1a57.62,57.62,0,0,1,9.27,6.16c.62.5,1.22,1,1.8,1.54A58.25,58.25,0,0,1,577.57,404.55ZM430.11,367.3a70.06,70.06,0,0,1,16.76-45.59,68.26,68.26,0,0,1,7.1-7.23l57.59,57.59H430.11Zm0,15.36h16.18a14.62,14.62,0,0,0,14.6,13.71,10,10,0,0,0,1.1-.05,14.42,14.42,0,0,0,3.18-.59,14.64,14.64,0,0,0,10.31-13.07h28.58l-1.5,1.34a63.48,63.48,0,0,0-11.17,13.93,68.24,68.24,0,0,0-5.6,11.86,71.69,71.69,0,0,0-3.93,17.34H430.11Zm0,55.32h51.44a74.85,74.85,0,0,0,1.09,9.93,69.06,69.06,0,0,0,12,28.51H430.11Zm.82,60a100.27,100.27,0,0,1-.79-11h72.42v38.65H438.63A99.7,99.7,0,0,1,430.93,498Zm71.89,83.32a100.48,100.48,0,0,1-49.32-33,98.32,98.32,0,0,1-7.8-11h57.12Zm63.72,2.6A101.58,101.58,0,0,1,549,585.44H530.45A99.55,99.55,0,0,1,513.59,584V497.2l1.27.79,3.58,2.24h0l21.35,13.35,20.94-13.36,3.48-2.23,1.95-1.23.37-.25ZM571.78,474c-.55.75-1.11,1.49-1.7,2.21l-.13.17c-1.08,1.36-2.22,2.66-3.41,3.92-1.37,1.47-2.79,2.87-4.28,4.19-.94.84-1.89,1.66-2.87,2.43s-2,1.54-3,2.26h0a61.64,61.64,0,0,1-7.53,4.57,62.33,62.33,0,0,1-6.81,3c-.84.3-1.69.6-2.55.87-.86-.28-1.72-.57-2.57-.87a60.67,60.67,0,0,1-6.76-3h0a62.56,62.56,0,0,1-9-5.62c-.53-.39-1.07-.8-1.59-1.22-1-.78-1.94-1.59-2.88-2.45s-2.08-1.91-3.08-2.92a63.07,63.07,0,0,1-4.6-5.17l-.11-.15c-1.13-1.39-2.2-2.86-3.22-4.34l0-.06,0-.05q-1.6-2.37-3-4.89a73.58,73.58,0,0,1-7.52-19,76.56,76.56,0,0,1-1.75-9.93c-.18-1.61-.31-3.23-.38-4.87V433c-.06-1.21-.1-2.43-.1-3.66,0-.74,0-1.48,0-2.21a74.12,74.12,0,0,1,.86-9.61l1.48,1.47h0l7.35,7.18,1,.95L513.59,437l1,1,10.16,9.93,6.71,6.55,8,7.85,8.37-8.14,6.43-6.26L564.53,438l2-2,9.16-8.9,1.87-1.83L584,419l.82-.79.42-.41a78.92,78.92,0,0,1,.82,9.32c0,.73,0,1.47,0,2.21,0,.2,0,.38,0,.58v0a78.55,78.55,0,0,1-.46,8,76.57,76.57,0,0,1-1.76,9.93,73.84,73.84,0,0,1-6.33,16.85,72.3,72.3,0,0,1-5.78,9.26S571.78,474,571.78,474Zm55.11,74.29a100.53,100.53,0,0,1-49.32,33v-44h57.12A99.63,99.63,0,0,1,626.89,548.33ZM648.5,498a99.7,99.7,0,0,1-7.7,27.62H577.57V487h71.72A100.27,100.27,0,0,1,648.5,498Zm.81-21.57H583.88a69.18,69.18,0,0,0,12-28.51A74.85,74.85,0,0,0,597,438h52.31Zm0-49.29H596.69A72.45,72.45,0,0,0,593,410.34a67.64,67.64,0,0,0-4.76-10.6,64.59,64.59,0,0,0-10.63-14.19c-1-1-2-2-3.09-2.89h29a14.12,14.12,0,0,0,.28,2.07,14.64,14.64,0,0,0,6.14,9.14,14.23,14.23,0,0,0,3.87,1.85,14.81,14.81,0,0,0,3.8.64h.51a14.63,14.63,0,0,0,14.6-13.71h16.63Zm0-55.06H567.25l10.12-10.13.2-.2,47.55-47.55a67.9,67.9,0,0,1,7.66,7.79,70.07,70.07,0,0,1,16.53,45.32Z" transform="translate(-191.52 -284.64)"/><path class="cls-1" d="M494.67,476.42H430.11V438h51.44a74.85,74.85,0,0,0,1.09,9.93A69.06,69.06,0,0,0,494.67,476.42Z" transform="translate(-191.52 -284.64)"/><path class="cls-1" d="M502.56,525.61H438.63A99.41,99.41,0,0,1,430.14,487h72.42Z" transform="translate(-191.52 -284.64)"/><path class="cls-1" d="M445.7,537.3h57.12v44a100.48,100.48,0,0,1-49.32-33A98.32,98.32,0,0,1,445.7,537.3Z" transform="translate(-191.52 -284.64)"/><path class="cls-1" d="M481.86,427.13H430.11V382.66h16.18a14.62,14.62,0,0,0,14.6,13.71,10,10,0,0,0,1.1-.05,14.42,14.42,0,0,0,3.18-.59,14.64,14.64,0,0,0,10.31-13.07h28.58l-1.5,1.34a63.48,63.48,0,0,0-11.17,13.93,68.24,68.24,0,0,0-5.6,11.86A71.69,71.69,0,0,0,481.86,427.13Z" transform="translate(-191.52 -284.64)"/><path class="cls-1" d="M430.11,372.07V367.3a70.06,70.06,0,0,1,16.76-45.59,68.26,68.26,0,0,1,7.1-7.23l57.59,57.59Z" transform="translate(-191.52 -284.64)"/><path class="cls-1" d="M528,372l-64.53-64.53a65.8,65.8,0,0,1,7.9-4.24,70,70,0,0,1,29.16-6.31h78.36a69.91,69.91,0,0,1,29.5,6.47,66.74,66.74,0,0,1,7.19,3.83L555,367.74l-.47.48-3.85,3.85-.44.44a5.56,5.56,0,0,0-.39-.44,14.61,14.61,0,0,0-6.07-4.13,14.8,14.8,0,0,0-4.91-.84,13.9,13.9,0,0,0-3.25.37,11,11,0,0,0-1.21.34c-.3.09-.59.2-.88.31s-.53.21-.8.34a12,12,0,0,0-1.15.61,3.81,3.81,0,0,0-.58.34l-.1.06a5.93,5.93,0,0,0-.54.38h0a5.73,5.73,0,0,0-.63.47l-.38.32a3.17,3.17,0,0,0-.39.34,2.73,2.73,0,0,0-.34.34A7.6,7.6,0,0,0,528,372Z" transform="translate(-191.52 -284.64)"/><path class="cls-1" d="M566.17,496.76l.37-.25v87.4A101.58,101.58,0,0,1,549,585.44H530.45A99.55,99.55,0,0,1,513.59,584V497.2l1.27.79,3.58,2.24h0l21.35,13.35,20.94-13.36,3.48-2.23Z" transform="translate(-191.52 -284.64)"/><path class="cls-1" d="M564.74,390c.62.5,1.22,1,1.8,1.54a58.25,58.25,0,0,1,11,13c.72,1.14,1.39,2.32,2,3.51l-2,1.94-11,10.64-6.73,6.49L548.56,438l-8.59,8.3-8.34-8.3-10.91-10.85L513.59,420l-11-11-2.24-2.23c.7-1.25,1.45-2.48,2.24-3.67a58.67,58.67,0,0,1,11-12.39l1.27-1.06a57.62,57.62,0,0,1,8.64-5.7,8.17,8.17,0,0,1,.87-.47c.57-.3,1.15-.59,1.73-.87a55,55,0,0,1,5.13-2.16c1.31-.48,2.66-.92,4-1.3s2.89-.77,4.37-1.07h0c1.36.28,2.7.6,4,1q2.79.78,5.44,1.82c1.37.52,2.71,1.11,4,1.74.12,0,.24.12.35.16.67.33,1.34.67,2,1A57.62,57.62,0,0,1,564.74,390Z" transform="translate(-191.52 -284.64)"/><path class="cls-1" d="M577.57,464.76a72.3,72.3,0,0,1-5.78,9.26s0,0,0,0c-.55.75-1.11,1.49-1.7,2.21l-.13.17c-1.08,1.36-2.22,2.66-3.41,3.92-1.37,1.47-2.79,2.87-4.28,4.19-.94.84-1.89,1.66-2.87,2.43s-2,1.54-3,2.26h0a61.64,61.64,0,0,1-7.53,4.57,62.33,62.33,0,0,1-6.81,3c-.84.3-1.69.6-2.55.87-.86-.28-1.72-.57-2.57-.87a60.67,60.67,0,0,1-6.76-3h0a62.56,62.56,0,0,1-9-5.62c-.53-.39-1.07-.8-1.59-1.22-1-.78-1.94-1.59-2.88-2.45s-2.08-1.91-3.08-2.92a63.07,63.07,0,0,1-4.6-5.17l-.11-.15c-1.13-1.39-2.2-2.86-3.22-4.34l0-.06,0-.05q-1.6-2.37-3-4.89a73.58,73.58,0,0,1-7.52-19,76.56,76.56,0,0,1-1.75-9.93c-.18-1.61-.31-3.23-.38-4.87V433c-.06-1.21-.1-2.43-.1-3.66,0-.74,0-1.48,0-2.21a74.12,74.12,0,0,1,.86-9.61l1.48,1.47h0l7.35,7.18,1,.95L513.59,437l1,1,10.16,9.93,6.71,6.55,8,7.85,8.37-8.14,6.43-6.26L564.53,438l2-2,9.16-8.9,1.87-1.83L584,419l.82-.79.42-.41a78.92,78.92,0,0,1,.82,9.32c0,.73,0,1.47,0,2.21,0,.2,0,.38,0,.58v0a78.55,78.55,0,0,1-.46,8,76.57,76.57,0,0,1-1.76,9.93A73.84,73.84,0,0,1,577.57,464.76Z" transform="translate(-191.52 -284.64)"/><path class="cls-1" d="M577.57,537.3h57.12a100.78,100.78,0,0,1-57.12,44Z" transform="translate(-191.52 -284.64)"/><path class="cls-1" d="M577.57,487h71.72a99.41,99.41,0,0,1-8.49,38.65H577.57Z" transform="translate(-191.52 -284.64)"/><path class="cls-1" d="M649.31,367.3v4.77H567.25l10.12-10.13.2-.2,47.55-47.55a67.9,67.9,0,0,1,7.66,7.79A70.07,70.07,0,0,1,649.31,367.3Z" transform="translate(-191.52 -284.64)"/><path class="cls-1" d="M632.68,382.66h16.63v44.47H596.69A72.45,72.45,0,0,0,593,410.34a67.64,67.64,0,0,0-4.76-10.6,64.59,64.59,0,0,0-10.63-14.19c-1-1-2-2-3.09-2.89h29a14.12,14.12,0,0,0,.28,2.07,14.64,14.64,0,0,0,6.14,9.14,14.23,14.23,0,0,0,3.87,1.85,14.81,14.81,0,0,0,3.8.64h.51A14.63,14.63,0,0,0,632.68,382.66Z" transform="translate(-191.52 -284.64)"/><path class="cls-1" d="M597,438h52.31v38.44H583.88a69.18,69.18,0,0,0,12-28.51A74.85,74.85,0,0,0,597,438Z" transform="translate(-191.52 -284.64)"/><line class="cls-2" x1="418.57" y1="109.05" x2="418.38" y2="109.24"/><path class="cls-3" d="M626.89,548.33a100.53,100.53,0,0,1-49.32,33v-33Z" transform="translate(-191.52 -284.64)"/><path class="cls-4" d="M634.69,537.3a99.63,99.63,0,0,1-7.8,11H577.57v-11Z" transform="translate(-191.52 -284.64)"/><path class="cls-4" d="M649.29,487a100.27,100.27,0,0,1-.79,11H577.57V487Z" transform="translate(-191.52 -284.64)"/><path class="cls-3" d="M648.5,498a99.7,99.7,0,0,1-7.7,27.62H577.57V498Z" transform="translate(-191.52 -284.64)"/><path class="cls-3" d="M649.31,447.91v28.51H583.88a69.18,69.18,0,0,0,12-28.51Z" transform="translate(-191.52 -284.64)"/><path class="cls-4" d="M649.31,438v9.93H595.9A74.85,74.85,0,0,0,597,438Z" transform="translate(-191.52 -284.64)"/><path class="cls-5" d="M649.31,382.66v44.47H596.69A72.45,72.45,0,0,0,593,410.34a67.64,67.64,0,0,0-4.76-10.6,64.59,64.59,0,0,0-10.63-14.19c-1-1-2-2-3.09-2.89h29a14.12,14.12,0,0,0,.28,2.07,14.64,14.64,0,0,0,6.14,9.14,14.23,14.23,0,0,0,3.87,1.85,14.81,14.81,0,0,0,3.8.64h.51a14.63,14.63,0,0,0,14.6-13.71Z" transform="translate(-191.52 -284.64)"/><path class="cls-4" d="M649.31,367.3v4.77H582.69l6.06-6.06,44-44A70.07,70.07,0,0,1,649.31,367.3Z" transform="translate(-191.52 -284.64)"/><path class="cls-3" d="M632.78,322l-44,44-6.06,6.06H567.25l10.12-10.13.2-.2,47.55-47.55A67.9,67.9,0,0,1,632.78,322Z" transform="translate(-191.52 -284.64)"/><path class="cls-4" d="M552.08,359.66l-4.15,4.14-.43.43-3.7,3.71a14.8,14.8,0,0,0-4.91-.84,13.9,13.9,0,0,0-3.25.37l-7.95-8,1.84-.66h0l1.1-.38,9.75-3.47,9.51,3.8,1.31.51Z" transform="translate(-191.52 -284.64)"/><path class="cls-3" d="M608.39,303.35,566.54,345.2l-13.28,13.28-1.18,1.18-.87-.35-1.31-.51-9.51-3.8-9.75,3.47-1.1.38h0l-1.84.66-56.32-56.32a70,70,0,0,1,29.16-6.31h78.36A69.91,69.91,0,0,1,608.39,303.35Z" transform="translate(-191.52 -284.64)"/><path class="cls-4" d="M535.64,367.47a11,11,0,0,0-1.21.34c-.3.09-.59.2-.88.31s-.53.21-.8.34a12,12,0,0,0-1.15.61,3.81,3.81,0,0,0-.58.34l-.1.06a5.93,5.93,0,0,0-.54.38h0a5.73,5.73,0,0,0-.63.47l-.38.32a3.17,3.17,0,0,0-.39.34,2.73,2.73,0,0,0-.34.34,7.6,7.6,0,0,0-.63.64l-64.53-64.53a65.8,65.8,0,0,1,7.9-4.24l56.32,56.32Z" transform="translate(-191.52 -284.64)"/><path class="cls-3" d="M511.56,372.07H497.22l-50.35-50.36a68.26,68.26,0,0,1,7.1-7.23Z" transform="translate(-191.52 -284.64)"/><path class="cls-4" d="M497.22,372.07H430.11V367.3a70.06,70.06,0,0,1,16.76-45.59Z" transform="translate(-191.52 -284.64)"/><path class="cls-3" d="M579.58,408.06l-2,1.94-11,10.64-6.73,6.49L548.56,438l-8.59,8.3-8.34-8.3-10.91-10.85L513.59,420l-11-11-2.24-2.23c.7-1.25,1.45-2.48,2.24-3.67a58.67,58.67,0,0,1,11-12.39l1.27-1.06a57.62,57.62,0,0,1,8.64-5.7,8.17,8.17,0,0,1,.87-.47c.57-.3,1.15-.59,1.73-.87a55,55,0,0,1,5.13-2.16c1.31-.48,2.66-.92,4-1.3s2.89-.77,4.37-1.07h0c1.36.28,2.7.6,4,1q2.79.78,5.44,1.82c1.37.52,2.71,1.11,4,1.74.12,0,.24.12.35.16.67.33,1.34.67,2,1a57.62,57.62,0,0,1,9.27,6.16c.62.5,1.22,1,1.8,1.54a58.25,58.25,0,0,1,11,13C578.29,405.69,579,406.87,579.58,408.06Z" transform="translate(-191.52 -284.64)"/><path class="cls-4" d="M615.58,307.18,555,367.74l-.47.48-3.85,3.85-.44.44a5.56,5.56,0,0,0-.39-.44,14.61,14.61,0,0,0-6.07-4.13l3.7-3.71.43-.43,4.15-4.14,1.18-1.18,13.28-13.28,41.85-41.85A66.74,66.74,0,0,1,615.58,307.18Z" transform="translate(-191.52 -284.64)"/><path class="cls-5" d="M504.06,382.66l-1.5,1.34a63.48,63.48,0,0,0-11.17,13.93,68.24,68.24,0,0,0-5.6,11.86,71.69,71.69,0,0,0-3.93,17.34H430.11V382.66h16.18a14.62,14.62,0,0,0,14.6,13.71,10,10,0,0,0,1.1-.05,14.42,14.42,0,0,0,3.18-.59,14.64,14.64,0,0,0,10.31-13.07Z" transform="translate(-191.52 -284.64)"/><path class="cls-4" d="M482.64,447.91H430.11V438h51.44A74.85,74.85,0,0,0,482.64,447.91Z" transform="translate(-191.52 -284.64)"/><path class="cls-3" d="M494.67,476.42H430.11V447.91h52.53A69.06,69.06,0,0,0,494.67,476.42Z" transform="translate(-191.52 -284.64)"/><path class="cls-4" d="M502.56,487v11H430.93a100.27,100.27,0,0,1-.79-11Z" transform="translate(-191.52 -284.64)"/><path class="cls-3" d="M502.56,498v27.62H438.63a99.7,99.7,0,0,1-7.7-27.62Z" transform="translate(-191.52 -284.64)"/><path class="cls-5" d="M566.54,496.51v87.4A101.58,101.58,0,0,1,549,585.44H530.45A99.55,99.55,0,0,1,513.59,584V497.2l1.27.79,3.58,2.24h0l21.35,13.35,20.94-13.36,3.48-2.23,1.95-1.23Z" transform="translate(-191.52 -284.64)"/><path class="cls-4" d="M586.13,429.34c0,.2,0,.38,0,.58v0a78.55,78.55,0,0,1-.46,8,76.57,76.57,0,0,1-1.76,9.93,73.84,73.84,0,0,1-6.33,16.85,72.3,72.3,0,0,1-5.78,9.26s0,0,0,0c-.55.75-1.11,1.49-1.7,2.21l-.13.17c-1.08,1.36-2.22,2.66-3.41,3.92-1.37,1.47-2.79,2.87-4.28,4.19-.94.84-1.89,1.66-2.87,2.43s-2,1.54-3,2.26h0a61.64,61.64,0,0,1-7.53,4.57,62.33,62.33,0,0,1-6.81,3c-.84.3-1.69.6-2.55.87-.86-.28-1.72-.57-2.57-.87a60.67,60.67,0,0,1-6.76-3h0a62.56,62.56,0,0,1-9-5.62c-.53-.39-1.07-.8-1.59-1.22-1-.78-1.94-1.59-2.88-2.45s-2.08-1.91-3.08-2.92a63.07,63.07,0,0,1-4.6-5.17l-.11-.15c-1.13-1.39-2.2-2.86-3.22-4.34l0-.06,0-.05q-1.6-2.37-3-4.89a73.58,73.58,0,0,1-7.52-19,76.56,76.56,0,0,1-1.75-9.93c-.18-1.61-.31-3.23-.38-4.87V433c-.06-1.21-.1-2.43-.1-3.66,0-.74,0-1.48,0-2.21a74.12,74.12,0,0,1,.86-9.61l1.48,1.47h0c-.13,1.67-.19,3.35-.19,5.05,0,1,0,2.07.08,3.08A65.43,65.43,0,0,0,496.49,438a66.13,66.13,0,0,0,3,9.93,63.62,63.62,0,0,0,3.11,6.82,65.34,65.34,0,0,0,11,15.19c.3.31.6.62.92.92a63.29,63.29,0,0,0,6.44,5.58c.76.57,1.55,1.13,2.33,1.67a63.13,63.13,0,0,0,15,7.64h0a63.16,63.16,0,0,0,17.12-7.86c.73-.46,1.44-.95,2.14-1.45a63.34,63.34,0,0,0,6.94-5.7c.7-.65,1.37-1.32,2-2a65,65,0,0,0,11-15.27,60.83,60.83,0,0,0,2.58-5.55,65.12,65.12,0,0,0,4.75-20.78c.08-1.38.13-2.78.13-4.18v0c0-1.58-.06-3.15-.17-4.69l.42-.41a78.92,78.92,0,0,1,.82,9.32C586.12,427.86,586.13,428.6,586.13,429.34Z" transform="translate(-191.52 -284.64)"/><path class="cls-3" d="M585,422.91v0c0,1.4,0,2.8-.13,4.18a65.12,65.12,0,0,1-4.75,20.78,60.83,60.83,0,0,1-2.58,5.55,65,65,0,0,1-11,15.27c-.65.67-1.32,1.34-2,2a63.34,63.34,0,0,1-6.94,5.7c-.7.5-1.41,1-2.14,1.45a63.16,63.16,0,0,1-17.12,7.86h0a63.13,63.13,0,0,1-15-7.64c-.78-.54-1.57-1.1-2.33-1.67a63.29,63.29,0,0,1-6.44-5.58c-.32-.3-.62-.61-.92-.92a65.34,65.34,0,0,1-11-15.19,63.62,63.62,0,0,1-3.11-6.82,66.13,66.13,0,0,1-3-9.93,65.43,65.43,0,0,1-1.39-10.85c-.06-1-.08-2-.08-3.08,0-1.7.06-3.38.19-5.05l7.35,7.18,1,.95L513.59,437l1,1,10.16,9.93,6.71,6.55,8,7.85,8.37-8.14,6.43-6.26L564.53,438l2-2,9.16-8.9,1.87-1.83L584,419l.82-.79C585,419.76,585,421.33,585,422.91Z" transform="translate(-191.52 -284.64)"/><path class="cls-3" d="M502.82,548.33v33a100.48,100.48,0,0,1-49.32-33Z" transform="translate(-191.52 -284.64)"/><path class="cls-4" d="M502.82,537.3v11H453.5a98.32,98.32,0,0,1-7.8-11Z" transform="translate(-191.52 -284.64)"/><path class="cls-1" d="M291.55,696.87h15.78v17.18c0,1.71,1.09,2.56,3.28,2.56s3.17-.85,3.17-2.56v-8.88q0-4.06-5.74-9.55-11.09-10.2-13.78-13.69a12.23,12.23,0,0,1-2.71-7.68v-8.41q0-14.57,20.11-14.57,18,0,18,13.27v13H313.89V663.7c0-1.49-.88-2.24-2.64-2.24q-3.11,0-3.1,4.33l.34,4.86q0,4.19,5.86,9.71,10.89,9.89,13.85,13.79a14.35,14.35,0,0,1,2.95,8.88v9.56q0,14.94-20.16,14.94-19.44,0-19.44-13.58Z" transform="translate(-191.52 -284.64)"/><path class="cls-1" d="M391.64,726.85h-34V652h33.75v9.61H375v20.27h14.78v9.08H375v26.33h16.6Z" transform="translate(-191.52 -284.64)"/><path class="cls-1" d="M417.27,696.87h15.78v17.18c0,1.71,1.09,2.56,3.28,2.56s3.17-.85,3.17-2.56v-8.88q0-4.06-5.74-9.55-11.08-10.2-13.78-13.69a12.23,12.23,0,0,1-2.71-7.68v-8.41q0-14.57,20.11-14.57,18,0,18,13.27v13H439.61V663.7c0-1.49-.88-2.24-2.64-2.24q-3.11,0-3.1,4.33l.34,4.86q0,4.19,5.86,9.71,10.89,9.89,13.85,13.79a14.35,14.35,0,0,1,2.95,8.88v9.56q0,14.94-20.16,14.94-19.44,0-19.44-13.58Z" transform="translate(-191.52 -284.64)"/><path class="cls-1" d="M522.71,726.85H505.34V690.91h-4.85v35.94H483.11V652h17.38v29.88h4.85V652h17.37Z" transform="translate(-191.52 -284.64)"/><path class="cls-1" d="M566.05,699.27v27.58H549.12V652h18.25q10.88,0,16.13,2.61t5.27,10.66V686q0,7.37-4.3,10.42T566.05,699.27Zm5.79-14.68v-18q0-4-5.79-4v25.9Q571.84,688.56,571.84,684.59Z" transform="translate(-191.52 -284.64)"/><path class="cls-1" d="M661.67,726.85H644.46l-2.94-20.11h-7.71l-3,20.11H613.63l13-74.9h22Zm-21.55-30.5L637.62,674l-2.36,22.36Z" transform="translate(-191.52 -284.64)"/><path class="cls-1" d="M723.48,661.72h-9.7v65.13H696.4V661.72h-9.71V652h36.79Z" transform="translate(-191.52 -284.64)"/><path class="cls-1" d="M788.94,726.85H771.56V690.91h-4.85v35.94H749.33V652h17.38v29.88h4.85V652h17.38Z" transform="translate(-191.52 -284.64)"/><path class="cls-6" d="M206.7,767.74a12.08,12.08,0,0,0-4.57.82,9.08,9.08,0,0,0-3.46,2.39,10.57,10.57,0,0,0-2.18,3.81,15.9,15.9,0,0,0-.75,5,15.44,15.44,0,0,0,1.22,6.41,9.08,9.08,0,0,0,3.64,4.2,11.48,11.48,0,0,0,6.06,1.46,22.63,22.63,0,0,0,4-.33c1.24-.23,2.45-.5,3.64-.84V794a20,20,0,0,1-3.66.92,29.33,29.33,0,0,1-4.51.29,15.81,15.81,0,0,1-8.08-1.88,11.85,11.85,0,0,1-4.86-5.37,19.18,19.18,0,0,1-1.62-8.17,18.29,18.29,0,0,1,1-6.2,13.56,13.56,0,0,1,2.93-4.87,12.81,12.81,0,0,1,4.77-3.16,17.84,17.84,0,0,1,6.53-1.11,23.34,23.34,0,0,1,4.7.46,17.74,17.74,0,0,1,4,1.3l-1.6,3.18a26.28,26.28,0,0,0-3.26-1.13A14.78,14.78,0,0,0,206.7,767.74Z" transform="translate(-191.52 -284.64)"/><path class="cls-6" d="M252.39,779.77a20.15,20.15,0,0,1-.94,6.31,13.56,13.56,0,0,1-2.77,4.88,11.94,11.94,0,0,1-4.57,3.14,16.92,16.92,0,0,1-6.33,1.09,17.23,17.23,0,0,1-6.48-1.11,12.08,12.08,0,0,1-4.58-3.14,13,13,0,0,1-2.7-4.88,21,21,0,0,1-.89-6.33,18.83,18.83,0,0,1,1.6-8.05,11.93,11.93,0,0,1,4.86-5.37,16,16,0,0,1,8.23-1.92,15.52,15.52,0,0,1,8,1.9,12.28,12.28,0,0,1,4.91,5.37A18.49,18.49,0,0,1,252.39,779.77Zm-25,0a17.23,17.23,0,0,0,1.11,6.5,8.6,8.6,0,0,0,3.44,4.19,10.82,10.82,0,0,0,5.88,1.47,10.68,10.68,0,0,0,5.88-1.47,8.81,8.81,0,0,0,3.4-4.19,17.23,17.23,0,0,0,1.11-6.5q0-5.65-2.49-8.87t-7.86-3.2a11.09,11.09,0,0,0-5.92,1.44,8.5,8.5,0,0,0-3.44,4.15A17.05,17.05,0,0,0,227.35,779.77Z" transform="translate(-191.52 -284.64)"/><path class="cls-6" d="M289.23,779.52a16.57,16.57,0,0,1-2,8.42,12.52,12.52,0,0,1-5.66,5.12,21.1,21.1,0,0,1-8.93,1.72h-8.83V764.85h9.77a19.21,19.21,0,0,1,8.3,1.67,12.21,12.21,0,0,1,5.41,4.93A15.6,15.6,0,0,1,289.23,779.52Zm-4.21.12a13.6,13.6,0,0,0-1.4-6.54,8.75,8.75,0,0,0-4.09-3.79,15.54,15.54,0,0,0-6.5-1.24h-5.2v23.48h4.31q6.44,0,9.66-3T285,779.64Z" transform="translate(-191.52 -284.64)"/><path class="cls-6" d="M318.4,794.78H300.69V764.85H318.4v3.31H304.68v9.35H317.6v3.27H304.68v10.68H318.4Z" transform="translate(-191.52 -284.64)"/><path class="cls-6" d="M328.7,792.51a2.64,2.64,0,0,1,.8-2.18,3,3,0,0,1,1.91-.63,3.12,3.12,0,0,1,2,.63,2.59,2.59,0,0,1,.83,2.18,2.64,2.64,0,0,1-.83,2.18,3,3,0,0,1-2,.67,2.86,2.86,0,0,1-1.91-.67A2.69,2.69,0,0,1,328.7,792.51Z" transform="translate(-191.52 -284.64)"/><path class="cls-6" d="M355.07,794.78H343.62V792.6l3.73-.8V767.86l-3.73-.83v-2.18h11.45V767l-3.73.83V791.8l3.73.8Z" transform="translate(-191.52 -284.64)"/><path class="cls-6" d="M390.76,794.78H386.1l-17-24.86H369q.09,1,.15,2.28c.05.88.09,1.82.13,2.81s.07,2,.07,3v16.73h-3.68V764.85h4.61l16.92,24.77h.18q0-.68-.12-2c0-.9-.08-1.87-.13-2.94s-.06-2-.06-2.93V764.85h3.72Z" transform="translate(-191.52 -284.64)"/><path class="cls-6" d="M413.85,794.78h-4V768.16H400v-3.31h23.76v3.31h-9.86Z" transform="translate(-191.52 -284.64)"/><path class="cls-6" d="M450.65,794.78H432.94V764.85h17.71v3.31H436.94v9.35h12.92v3.27H436.94v10.68h13.71Z" transform="translate(-191.52 -284.64)"/><path class="cls-6" d="M475.83,779h11v14.67a33.81,33.81,0,0,1-5.19,1.18,42.42,42.42,0,0,1-6,.37,17,17,0,0,1-8.3-1.86,12.32,12.32,0,0,1-5.13-5.32,17.93,17.93,0,0,1-1.75-8.2,16.2,16.2,0,0,1,1.95-8.13,13.37,13.37,0,0,1,5.62-5.34,18.84,18.84,0,0,1,8.85-1.91,26.16,26.16,0,0,1,5,.46,23.48,23.48,0,0,1,4.42,1.3l-1.51,3.27a24.25,24.25,0,0,0-3.8-1.22,19,19,0,0,0-4.37-.5,13.37,13.37,0,0,0-6.48,1.47,9.83,9.83,0,0,0-4.13,4.17,13.59,13.59,0,0,0-1.42,6.43,15.44,15.44,0,0,0,1.22,6.31,9.12,9.12,0,0,0,3.84,4.28,13.56,13.56,0,0,0,6.88,1.53,25.46,25.46,0,0,0,3.55-.21,26.53,26.53,0,0,0,2.67-.51v-8.88h-7Z" transform="translate(-191.52 -284.64)"/><path class="cls-6" d="M507.57,764.85a19,19,0,0,1,6.5.94,7.43,7.43,0,0,1,3.8,2.83,8.44,8.44,0,0,1,1.24,4.74,7.79,7.79,0,0,1-.93,4,7.33,7.33,0,0,1-2.38,2.53,13.19,13.19,0,0,1-3,1.49l8.71,13.42H516.8l-7.68-12.37h-6.3v12.37h-4V764.85Zm-.22,3.27h-4.53v11.1h4.75q3.85,0,5.64-1.44a5.18,5.18,0,0,0,1.77-4.26,5.36,5.36,0,0,0-.82-3.14,4.69,4.69,0,0,0-2.51-1.72A14.35,14.35,0,0,0,507.35,768.12Z" transform="translate(-191.52 -284.64)"/><path class="cls-6" d="M550.77,794.78,547,785.51H534.38l-3.77,9.27h-4L539,764.72h3.59l12.34,30.06ZM542.2,773.1c-.09-.22-.24-.62-.45-1.21s-.4-1.2-.6-1.82-.34-1.12-.46-1.45c-.15.56-.31,1.12-.47,1.7s-.32,1.09-.49,1.57-.3.88-.42,1.21l-3.59,9.06h10Z" transform="translate(-191.52 -284.64)"/><path class="cls-6" d="M570.61,794.78h-4V768.16h-9.9v-3.31h23.75v3.31h-9.86Z" transform="translate(-191.52 -284.64)"/><path class="cls-6" d="M607.41,794.78H589.7V764.85h17.71v3.31H593.7v9.35h12.92v3.27H593.7v10.68h13.71Z" transform="translate(-191.52 -284.64)"/><path class="cls-6" d="M617.71,792.51a2.64,2.64,0,0,1,.8-2.18,3,3,0,0,1,1.91-.63,3.17,3.17,0,0,1,2,.63,2.58,2.58,0,0,1,.82,2.18,2.63,2.63,0,0,1-.82,2.18,3,3,0,0,1-2,.67,2.87,2.87,0,0,1-1.91-.67A2.69,2.69,0,0,1,617.71,792.51Z" transform="translate(-191.52 -284.64)"/><path class="cls-6" d="M660.29,794.78h-4.66l-17-24.86h-.18c.06.64.11,1.4.16,2.28s.09,1.82.13,2.81.07,2,.07,3v16.73h-3.69V764.85h4.62l16.91,24.77h.18c0-.45-.07-1.12-.11-2s-.09-1.87-.13-2.94-.07-2-.07-2.93V764.85h3.73Z" transform="translate(-191.52 -284.64)"/><path class="cls-6" d="M693.23,794.78l-3.82-9.27H676.85l-3.78,9.27h-4l12.38-30.06H685l12.34,30.06Zm-8.57-21.68c-.09-.22-.23-.62-.44-1.21s-.41-1.2-.6-1.82-.35-1.12-.47-1.45c-.15.56-.3,1.12-.46,1.7s-.33,1.09-.49,1.57-.31.88-.42,1.21l-3.6,9.06h10Z" transform="translate(-191.52 -284.64)"/><path class="cls-6" d="M726.71,764.85l-11.32,29.93h-4l-11.32-29.93h4.17l7.15,19.2q.5,1.22.84,2.34c.24.76.45,1.48.65,2.16s.36,1.36.51,2c.14-.67.31-1.35.51-2.05s.41-1.43.66-2.18.53-1.55.83-2.39l7.1-19.11Z" transform="translate(-191.52 -284.64)"/><path class="cls-6" d="M744.38,794.78H732.92V792.6l3.73-.8V767.86l-3.73-.83v-2.18h11.46V767l-3.73.83V791.8l3.73.8Z" transform="translate(-191.52 -284.64)"/><path class="cls-6" d="M768.7,779h11v14.67a33.94,33.94,0,0,1-5.2,1.18,42.32,42.32,0,0,1-6,.37,17,17,0,0,1-8.3-1.86A12.24,12.24,0,0,1,755.1,788a17.93,17.93,0,0,1-1.76-8.2,16.2,16.2,0,0,1,1.95-8.13,13.48,13.48,0,0,1,5.62-5.34,18.86,18.86,0,0,1,8.86-1.91,26.31,26.31,0,0,1,5,.46,23.38,23.38,0,0,1,4.41,1.3l-1.51,3.27a24.12,24.12,0,0,0-3.79-1.22,19.07,19.07,0,0,0-4.37-.5,13.44,13.44,0,0,0-6.49,1.47,9.81,9.81,0,0,0-4.12,4.17,13.59,13.59,0,0,0-1.43,6.43,15.28,15.28,0,0,0,1.23,6.31,9.12,9.12,0,0,0,3.84,4.28,13.54,13.54,0,0,0,6.88,1.53,25.56,25.56,0,0,0,3.55-.21,26.31,26.31,0,0,0,2.66-.51v-8.88h-7Z" transform="translate(-191.52 -284.64)"/><path class="cls-6" d="M811.59,794.78l-3.82-9.27H795.21l-3.78,9.27h-4l12.39-30.06h3.6l12.34,30.06ZM803,773.1c-.09-.22-.24-.62-.44-1.21s-.41-1.2-.6-1.82-.35-1.12-.47-1.45c-.15.56-.3,1.12-.47,1.7s-.32,1.09-.48,1.57l-.43,1.21-3.59,9.06h10Z" transform="translate(-191.52 -284.64)"/><path class="cls-6" d="M831.43,794.78h-4V768.16h-9.9v-3.31h23.75v3.31h-9.86Z" transform="translate(-191.52 -284.64)"/><path class="cls-6" d="M868.24,794.78H850.52V764.85h17.72v3.31H854.52v9.35h12.92v3.27H854.52v10.68h13.72Z" transform="translate(-191.52 -284.64)"/><path class="cls-6" d="M883,792.51a2.61,2.61,0,0,1,.8-2.18,3,3,0,0,1,1.9-.63,3.17,3.17,0,0,1,2,.63,2.58,2.58,0,0,1,.82,2.18,2.63,2.63,0,0,1-.82,2.18,3,3,0,0,1-2,.67,2.83,2.83,0,0,1-1.9-.67A2.66,2.66,0,0,1,883,792.51Z" transform="translate(-191.52 -284.64)"/></svg>